<?xml version="1.0" encoding="UTF-8"?>
<svg version="1.1" xmlns="http://www.w3.org/2000/svg" width="1000" height="1000">
<path d="M0 0 C0.75296356 -0.00635468 1.50592712 -0.01270935 2.28170776 -0.01925659 C16.90996032 -0.09600085 30.94307518 1.84622249 44.9375 6.25 C46.19916992 6.64227783 46.19916992 6.64227783 47.48632812 7.04248047 C67.91440044 13.53842019 85.68219935 24.63664951 102.75 37.4375 C103.97203125 38.32308594 103.97203125 38.32308594 105.21875 39.2265625 C110.1407234 42.88338077 114.45682314 47.01664294 118.73510742 51.39257812 C121.31088479 54.02385043 123.9261483 56.51312812 126.75 58.875 C131.3504403 62.78966038 135.30254945 67.28056684 139.33203125 71.765625 C140.70007838 73.27732813 142.0966263 74.76705477 143.57421875 76.171875 C144.75 77.4375 144.75 77.4375 144.75 79.4375 C145.30816406 79.63859375 145.86632812 79.8396875 146.44140625 80.046875 C149.64202612 81.97482876 151.5195807 84.71947571 153.6875 87.6875 C158.86027193 95.55201211 158.86027193 95.55201211 165.75 101.4375 C165.97945313 100.91027344 166.20890625 100.38304687 166.4453125 99.83984375 C168.18277555 96.64062286 170.38590313 93.85599091 172.625 91 C173.05941406 90.43990234 173.49382812 89.87980469 173.94140625 89.30273438 C174.79805978 88.20040393 175.65832938 87.10087268 176.52246094 86.00439453 C177.68096027 84.52562589 178.81401146 83.02702217 179.9453125 81.52734375 C180.54085938 80.83769531 181.13640625 80.14804687 181.75 79.4375 C182.41 79.4375 183.07 79.4375 183.75 79.4375 C183.98203125 78.88578125 184.2140625 78.3340625 184.453125 77.765625 C186.09821135 74.81239769 188.18162951 72.64637779 190.5 70.1875 C193.37878825 67.10107985 196.14796432 64.03293355 198.5625 60.5625 C201.40864497 56.63790123 204.71842825 53.24669653 208.125 49.8125 C208.65456299 49.27383301 209.18412598 48.73516602 209.72973633 48.18017578 C213.16699853 44.7685141 216.77520254 41.80759189 220.68359375 38.95117188 C222.77299326 37.42065711 224.82048387 35.84597277 226.86328125 34.25390625 C242.52297513 22.09585041 258.27023444 12.25031038 277 5.5625 C277.79075928 5.27632813 278.58151855 4.99015625 279.39624023 4.6953125 C290.98550845 0.72116674 302.58700377 0.02805673 314.75 0.0625 C315.83716309 0.06331573 315.83716309 0.06331573 316.94628906 0.06414795 C328.91665708 0.10532739 340.22536359 1.04297073 351.75 4.4375 C352.45898438 4.64117187 353.16796875 4.84484375 353.8984375 5.0546875 C373.66120011 10.91836432 393.93285133 21.14853997 409.234375 35.09765625 C410.89476131 36.56547198 412.63709066 37.83324289 414.4375 39.125 C423.07091879 45.52447969 430.9861367 53.09540193 437.75 61.4375 C438.39453125 62.22898437 439.0390625 63.02046875 439.703125 63.8359375 C441.73547827 66.3569864 443.74655147 68.89343838 445.75 71.4375 C446.3378125 72.18 446.925625 72.9225 447.53125 73.6875 C449.28873256 75.92429598 451.02372653 78.17654005 452.75 80.4375 C453.35328125 81.22125 453.9565625 82.005 454.578125 82.8125 C463.5793825 94.81417667 470.98807367 107.86426296 478.1875 121 C478.9314502 122.35508667 478.9314502 122.35508667 479.69042969 123.73754883 C484.26113205 132.17618857 487.9520983 140.74635339 491.25878906 149.75463867 C492.63933833 153.49747045 494.05413872 157.21674831 495.5625 160.91015625 C513.57220093 205.49441715 522.93251504 255.39381482 523.75 303.4375 C523.77046387 304.45086426 523.79092773 305.46422852 523.81201172 306.50830078 C524.76217798 360.71489335 517.01007751 418.52583864 478.125 459.4375 C463.40535498 473.75386708 444.81705581 484.06738981 424.75 488.4375 C423.91194824 488.62223877 423.07389648 488.80697754 422.21044922 488.99731445 C413.78034888 490.63347205 405.47004044 490.77658472 396.91552734 490.75317383 C394.51743647 490.75002291 392.12059494 490.77352719 389.72265625 490.79882812 C376.34172413 490.85452149 363.52603273 489.18068353 350.8125 484.8125 C349.7150647 484.4427002 349.7150647 484.4427002 348.59545898 484.06542969 C339.15826841 480.726939 330.07435258 475.98706839 321.75 470.4375 C321.75 469.7775 321.75 469.1175 321.75 468.4375 C320.70392578 468.09912109 320.70392578 468.09912109 319.63671875 467.75390625 C316.11474119 466.14780823 313.44429758 463.90286995 310.5625 461.375 C309.99297607 460.88330322 309.42345215 460.39160645 308.83666992 459.88500977 C307.13428687 458.41011984 305.44108006 456.92532525 303.75 455.4375 C302.40421875 454.261875 302.40421875 454.261875 301.03125 453.0625 C292.75237867 445.72679123 284.81645602 438.44343403 278.65625 429.203125 C276.33758336 425.83915783 273.84632037 422.64095117 271.3125 419.4375 C270.88203369 418.89254883 270.45156738 418.34759766 270.00805664 417.78613281 C268.00298065 415.25645786 265.99408911 412.73322397 263.93920898 410.24365234 C258.8425486 404.01601454 254.2714736 397.51367755 249.84057617 390.80664062 C248.69080143 389.06749373 247.53250681 387.33426335 246.37304688 385.6015625 C242.14629815 379.25497374 238.1502667 372.81217251 234.35180664 366.19775391 C232.0113041 362.16456968 229.51350313 358.23931102 227 354.3125 C222.00230369 346.45242924 217.1089862 338.53488341 212.2734375 330.57421875 C210.73519349 328.04346591 209.18284853 325.52360533 207.6015625 323.01953125 C203.41651775 316.36150551 199.66520243 309.57181257 196.03686523 302.60229492 C193.44717347 297.66169316 190.66350161 292.92621906 187.59106445 288.26611328 C182.69833131 280.74891315 178.10204014 273.03398711 173.4609375 265.359375 C173.10441605 264.76997131 172.74789459 264.18056763 172.38056946 263.57330322 C170.92802547 261.17130134 169.47569168 258.76918061 168.02636719 256.36523438 C163.75490466 249.28289847 159.42722434 242.26153667 154.75 235.4375 C154.40445068 236.05866699 154.05890137 236.67983398 153.70288086 237.31982422 C143.65693482 255.3613214 133.5565606 273.38259106 122.96875 291.11328125 C118.44320349 298.69265183 114.17934067 306.34374478 110.125 314.1875 C106.64481747 320.91857397 103.0389754 327.4642898 98.9765625 333.8671875 C95.94318267 338.66980109 93.1193893 343.5984838 90.25 348.5 C85.06835915 357.32134785 79.64524431 365.86180238 73.78515625 374.25 C72.3092665 376.56156629 71.14129226 378.64155391 69.98828125 381.09375 C67.22858042 386.7557788 63.54927058 391.79497901 59.9375 396.9375 C59.25107422 397.93136719 58.56464844 398.92523437 57.85742188 399.94921875 C54.26053235 405.10124406 50.55426628 409.98268692 46.34692383 414.64941406 C43.93288112 417.3524333 41.7191249 420.19914028 39.5 423.0625 C39.03746826 423.65369629 38.57493652 424.24489258 38.09838867 424.85400391 C35.67783876 427.94926729 33.27296301 431.05608656 30.87890625 434.171875 C24.10940686 442.94840604 17.26096356 450.75014469 8.359375 457.45703125 C6.36506942 458.97067336 4.40402537 460.50625226 2.453125 462.07421875 C-21.81156648 481.54228452 -47.40199138 491.12032313 -78.5 490.875 C-79.30882629 490.87229095 -80.11765259 490.86958191 -80.95098877 490.86679077 C-93.44146103 490.80344916 -105.20531093 489.96672341 -117.25 486.4375 C-117.89904297 486.26621582 -118.54808594 486.09493164 -119.21679688 485.91845703 C-139.25441812 480.62425304 -157.14587993 468.37673244 -171.25 453.4375 C-172.04277344 452.67824219 -172.83554688 451.91898438 -173.65234375 451.13671875 C-198.95683165 424.84288245 -210.0472806 384.85361803 -213.25 349.4375 C-213.41628906 347.64505859 -213.41628906 347.64505859 -213.5859375 345.81640625 C-218.50772827 281.89963688 -207.73238042 211.34763821 -180.796875 152.9296875 C-179.24064022 149.41636959 -177.97664717 145.89011531 -176.75 142.25 C-174.53545058 135.91254347 -171.70687227 130.21470643 -168.36767578 124.39892578 C-167.08687914 122.15123678 -165.83884899 119.88659778 -164.58984375 117.62109375 C-156.56706107 103.18870288 -147.96384062 89.04953385 -137.25 76.4375 C-136.32151075 75.19625647 -135.40307932 73.94735139 -134.5 72.6875 C-131.43852149 68.56898927 -128.06559 64.79434409 -124.6015625 61.01171875 C-123.05791198 59.32190863 -121.5311428 57.61648941 -120.0234375 55.89453125 C-113.32216095 48.25791751 -106.13447689 40.54607421 -97.25 35.4375 C-96.59 35.4375 -95.93 35.4375 -95.25 35.4375 C-94.92 34.4475 -94.59 33.4575 -94.25 32.4375 C-92.19823951 30.81066032 -90.18533367 29.36505263 -88 27.9375 C-87.34032227 27.5046167 -86.68064453 27.0717334 -86.00097656 26.62573242 C-59.00409514 9.304697 -32.04499727 0.13818366 0 0 Z M239.90625 102.7890625 C236.94793544 106.42264452 234.07979552 110.12274114 231.28613281 113.88452148 C229.41995358 116.37830996 227.54044587 118.64268842 225.3125 120.82421875 C222.10164879 124.09869963 219.59810565 127.67024681 217 131.4375 C216.48211914 132.17991943 215.96423828 132.92233887 215.43066406 133.68725586 C213.86534646 135.93384784 212.30709419 138.18520318 210.75 140.4375 C209.82318831 141.77232407 208.89612081 143.10697057 207.96875 144.44140625 C205.88981501 147.43596749 203.81769602 150.43516361 201.75 153.4375 C204.11885695 158.05513359 206.56971656 162.36087264 209.875 166.375 C214.43861394 172.06226835 218.03465461 178.31109353 221.78515625 184.546875 C224.73194833 189.43958794 227.79851666 194.25071535 230.875 199.0625 C234.87906739 205.34987855 238.6524205 211.71121699 242.2487793 218.23876953 C248.21769601 228.98947392 254.90542226 239.33047662 261.453125 249.734375 C265.76226539 256.58630018 270.00581511 263.4692694 274.125 270.4375 C274.53000732 271.11973633 274.93501465 271.80197266 275.35229492 272.50488281 C277.24149523 275.72325781 279.00721847 278.93783331 280.6015625 282.3125 C282.62820092 286.44631886 285.22066879 290.06028913 287.8984375 293.79492188 C291.0531073 298.29731453 293.87593467 303.00310653 296.75 307.6875 C302.49759418 316.98542042 308.47790066 326.08124828 314.73828125 335.04199219 C317.44941764 338.94560965 320.02566437 342.81979612 322.28515625 347.00390625 C324.85288986 351.755467 327.87714328 356.08239542 331.0625 360.4375 C331.63500488 361.22495605 332.20750977 362.01241211 332.79736328 362.82373047 C336.83144474 368.31750497 341.08272956 373.46878002 345.75 378.4375 C346.89990564 379.76732285 348.04573923 381.10067759 349.1875 382.4375 C353.15791889 386.98939901 357.44704864 391.20297013 361.75 395.4375 C362.52472656 396.27539062 363.29945313 397.11328125 364.09765625 397.9765625 C374.15548879 407.30857208 387.39119807 410.12737583 400.6484375 409.74609375 C412.80657987 409.06244645 424.30371832 403.57050751 432.5625 394.625 C460.84269912 359.39286648 451.83253838 300.99750115 447.44775391 259.31494141 C445.91919309 245.80830671 443.09552448 232.59920018 439.75 219.4375 C439.49992188 218.4367041 439.24984375 217.4359082 438.9921875 216.40478516 C437.44894334 210.34521999 435.66870565 204.38769293 433.75 198.4375 C433.28303711 196.95540039 433.28303711 196.95540039 432.80664062 195.44335938 C427.80343846 179.69827247 421.57516909 164.92275061 414.13085938 150.18164062 C412.88170977 147.69924289 411.66046893 145.20605012 410.453125 142.703125 C404.05169933 129.48693656 396.38922814 118.43941664 386.75 107.4375 C385.821875 106.34115234 385.821875 106.34115234 384.875 105.22265625 C368.84509054 86.37980595 351.51616241 74.22390707 327.75 67.4375 C326.89277344 67.19128906 326.03554688 66.94507813 325.15234375 66.69140625 C292.45813889 58.77711626 260.55468529 78.98172479 239.90625 102.7890625 Z M-60.24609375 110.60546875 C-61.32015973 111.84219952 -62.3819742 113.08987519 -63.421875 114.35546875 C-65.07428879 116.23738445 -66.79272796 117.94595244 -68.58984375 119.6875 C-72.19253751 123.26789634 -75.16713015 127.08575667 -78.0625 131.25 C-78.57603027 131.98645752 -79.08956055 132.72291504 -79.61865234 133.48168945 C-110.24250501 178.18759485 -125.6052739 234.09093193 -131.25 287.4375 C-131.34571289 288.31059814 -131.44142578 289.18369629 -131.54003906 290.08325195 C-132.39249707 298.84233438 -132.47046191 307.59593448 -132.49023438 316.38891602 C-132.49989229 318.97119977 -132.53099601 321.55266895 -132.5625 324.13476562 C-132.72016809 349.13937597 -128.49491349 376.68775903 -110.52905273 395.47265625 C-100.44581984 405.40544475 -89.7209761 409.65172046 -75.75 409.8125 C-55.76562242 409.60442066 -40.08487107 398.53665963 -26.375 384.8125 C-24.65339051 383.03358657 -22.94369191 381.24301376 -21.25 379.4375 C-20.60417969 378.74914062 -19.95835937 378.06078125 -19.29296875 377.3515625 C-14.97327667 372.57357352 -11.22591282 367.42230647 -7.49414062 362.17919922 C-5.52923709 359.4284885 -3.54357957 356.69284396 -1.56103516 353.95483398 C0.69200956 350.84148244 2.93957659 347.72419951 5.18652344 344.60644531 C6.15785671 343.25895549 7.12975627 341.91187345 8.10253906 340.56542969 C11.00966839 336.53999885 13.89161594 332.49769301 16.75 328.4375 C17.28189941 327.68259277 17.81379883 326.92768555 18.36181641 326.14990234 C20.10380412 323.66820029 21.83448569 321.17894791 23.5625 318.6875 C24.10197266 317.91929932 24.64144531 317.15109863 25.19726562 316.35961914 C28.41300643 311.6932996 31.02205419 306.97737303 33.48754883 301.87988281 C35.54166946 297.90590819 38.10027384 294.32808827 40.6875 290.6875 C46.30130694 282.64263813 51.626246 274.44676361 56.86010742 266.15063477 C59.84223522 261.42708176 62.85631247 256.74248873 66 252.125 C69.07841987 247.56631866 71.86753625 242.88092463 74.625 238.125 C80.30790636 228.33065917 86.55013413 218.97603606 93.0703125 209.72265625 C96.97139678 204.15833123 100.71943647 198.50027429 104.4375 192.8125 C105.08783203 191.82765625 105.73816406 190.8428125 106.40820312 189.828125 C111.65956314 181.93996173 111.65956314 181.93996173 115.75 173.4375 C115.26186453 170.70415674 115.26186453 170.70415674 113.5 168.5 C112.9121875 167.65179688 112.324375 166.80359375 111.71875 165.9296875 C109.24570318 162.79912426 106.65190067 159.82885481 103.94140625 156.90234375 C101.45524948 154.10597134 99.19035883 151.17114703 96.9375 148.1875 C74.26057148 118.32532691 46.35534778 87.67737106 7.5 81.6875 C-19.36128939 79.89674737 -42.14076165 90.94116481 -60.24609375 110.60546875 Z " fill="#0175EF" transform="translate(345.25,254.5625)"/>
</svg>
